<svg width="70" height="68" viewBox="0 0 70 68" fill="none" xmlns="http://www.w3.org/2000/svg">
<rect width="70" height="67.5862" rx="5" fill="white"/>
<path d="M31.7 49.36C29.804 49.36 28.124 49.156 26.66 48.748C25.22 48.316 23.948 47.716 22.844 46.948C21.764 46.18 20.792 45.28 19.928 44.248L24.428 39.208C25.628 40.744 26.876 41.764 28.172 42.268C29.492 42.748 30.728 42.988 31.88 42.988C32.336 42.988 32.744 42.952 33.104 42.88C33.464 42.784 33.74 42.64 33.932 42.448C34.124 42.256 34.22 41.992 34.22 41.656C34.22 41.344 34.112 41.08 33.896 40.864C33.704 40.648 33.44 40.468 33.104 40.324C32.768 40.156 32.396 40.024 31.988 39.928C31.604 39.808 31.22 39.712 30.836 39.64C30.476 39.568 30.152 39.496 29.864 39.424C28.424 39.088 27.164 38.68 26.084 38.2C25.004 37.72 24.104 37.144 23.384 36.472C22.664 35.8 22.124 35.032 21.764 34.168C21.428 33.304 21.26 32.332 21.26 31.252C21.26 30.028 21.536 28.912 22.088 27.904C22.664 26.896 23.42 26.032 24.356 25.312C25.316 24.592 26.396 24.04 27.596 23.656C28.82 23.272 30.08 23.08 31.376 23.08C33.272 23.08 34.856 23.26 36.128 23.62C37.4 23.956 38.468 24.448 39.332 25.096C40.196 25.744 40.94 26.5 41.564 27.364L37.028 31.72C36.5 31.216 35.948 30.808 35.372 30.496C34.796 30.16 34.196 29.92 33.572 29.776C32.972 29.608 32.372 29.524 31.772 29.524C31.22 29.524 30.752 29.572 30.368 29.668C29.984 29.74 29.684 29.872 29.468 30.064C29.252 30.232 29.144 30.472 29.144 30.784C29.144 31.096 29.276 31.36 29.54 31.576C29.828 31.768 30.176 31.936 30.584 32.08C31.016 32.224 31.436 32.344 31.844 32.44C32.276 32.512 32.636 32.572 32.924 32.62C34.244 32.86 35.456 33.196 36.56 33.628C37.664 34.036 38.624 34.564 39.44 35.212C40.28 35.836 40.916 36.628 41.348 37.588C41.804 38.524 42.032 39.64 42.032 40.936C42.032 42.784 41.564 44.332 40.628 45.58C39.716 46.828 38.48 47.776 36.92 48.424C35.36 49.048 33.62 49.36 31.7 49.36Z" fill="#03655B"/>
<path d="M36.4 48V27H52.09V32.25H42.61V42.75H52.63V48H36.4ZM39.49 39.84V34.92H50.98V39.84H39.49Z" fill="#D97706"/>
</svg>
