<svg width="569" height="569" viewBox="0 0 569 569" fill="none" xmlns="http://www.w3.org/2000/svg">
<path d="M390.85 38.2449C391.007 52.4218 400.35 63.7801 411.743 63.6447L411.746 63.9273C400.353 64.0627 391.264 75.6402 391.42 89.817L391.179 89.8198C391.022 75.643 381.679 64.2846 370.286 64.4201L370.283 64.1375C381.676 64.0021 390.765 52.4246 390.609 38.2478L390.85 38.2449Z" fill="#FF7442"/>
<path d="M210.85 440.245C211.007 454.422 220.35 465.78 231.743 465.645L231.746 465.927C220.353 466.063 211.264 477.64 211.42 491.817L211.179 491.82C211.022 477.643 201.679 466.285 190.286 466.42L190.283 466.138C201.676 466.002 210.765 454.425 210.609 440.248L210.85 440.245Z" fill="#FF7442"/>
<path d="M114.908 378.14C114.998 386.237 120.334 392.724 126.841 392.647L126.843 392.808C120.336 392.886 115.145 399.498 115.234 407.595L115.096 407.597C115.007 399.5 109.67 393.013 103.163 393.09L103.162 392.929C109.669 392.851 114.86 386.239 114.77 378.142L114.908 378.14Z" fill="#FF7442"/>
<path d="M452.659 146.137C452.746 154.064 457.97 160.415 464.341 160.339L464.342 160.497C457.972 160.573 452.89 167.046 452.978 174.973L452.843 174.975C452.755 167.048 447.531 160.697 441.161 160.773L441.159 160.615C447.529 160.539 452.611 154.065 452.524 146.138L452.659 146.137Z" fill="#FF7442"/>
</svg>
